<svg width="100" height="100" viewBox="0 0 100 100" fill="none" xmlns="http://www.w3.org/2000/svg">
<path d="M83.3332 90.75C83.3332 92.4069 81.99 93.75 80.3332 93.75H19.6665C18.0096 93.75 16.6665 92.4069 16.6665 90.75V9.25C16.6665 7.59315 18.0096 6.25 19.6665 6.25H61.2572C62.0528 6.25 62.8159 6.56607 63.3785 7.12868L82.4545 26.2047C83.0171 26.7673 83.3332 27.5303 83.3332 28.326V90.75Z" fill="#566885"/>
<path d="M78.5011 27.4596C79.131 28.0895 78.6849 29.1667 77.794 29.1667H61.4165C60.8642 29.1667 60.4165 28.719 60.4165 28.1667V11.7892C60.4165 10.8983 61.4936 10.4521 62.1236 11.0821L78.5011 27.4596Z" fill="#948E8C"/>
</svg>
